<svg width="54" height="62" viewBox="0 0 54 62" fill="none" xmlns="http://www.w3.org/2000/svg">
<path id="Icon" d="M38.3506 22.1872V13.4386C38.3506 6.9964 33.2688 1.77393 27 1.77393C20.7312 1.77393 15.6494 6.9964 15.6494 13.4386V22.1872M3.14096 26.1298L1.43837 44.7933C0.954271 50.0999 0.712222 52.7532 1.56903 54.8025C2.32172 56.6028 3.64072 58.0914 5.31466 59.0295C7.22016 60.0975 9.81333 60.0975 14.9997 60.0975H39.0003C44.1867 60.0975 46.7798 60.0975 48.6853 59.0295C50.3593 58.0914 51.6783 56.6028 52.431 54.8025C53.2878 52.7532 53.0457 50.0999 52.5616 44.7933L50.859 26.1298C50.4503 21.6487 50.2459 19.4082 49.2652 17.7142C48.4016 16.2224 47.1256 15.0283 45.5997 14.2839C43.867 13.4386 41.6773 13.4386 37.2977 13.4386L16.7023 13.4386C12.3227 13.4386 10.133 13.4386 8.40033 14.2839C6.87436 15.0283 5.59839 16.2224 4.73476 17.7142C3.75415 19.4082 3.54975 21.6487 3.14096 26.1298Z" stroke="#101010" stroke-opacity="0.4" stroke-width="2" stroke-linecap="round" stroke-linejoin="round"/>
</svg>
